<svg  fill="none" xmlns="http://www.w3.org/2000/svg">
<path d="M359.82 0H-0.180298V325H359.82V0Z" fill="white"/>
<path d="M359.82 0H-0.180298V325H359.82V0Z" fill="#BCEAF6"/>
<path d="M82.4088 104.557C86.3969 101.808 91.4486 101.063 96.2918 101.148C99.2636 101.2 102.334 101.57 104.88 103.1C109.367 105.798 111.182 111.514 111.066 116.748C111.487 113.483 115.084 111.689 118.304 110.996C120.648 110.491 123.187 110.281 125.366 111.284C127.545 112.287 129.158 114.835 128.4 117.11C129.093 116.074 130.093 115.281 131.26 114.842C132.427 114.404 133.701 114.341 134.906 114.664C136.11 114.986 137.183 115.677 137.974 116.64C138.765 117.604 139.235 118.79 139.318 120.034C139.375 120.9 139.304 121.917 139.974 122.468C140.423 122.761 140.952 122.904 141.487 122.877L186.053 125.264L92.911 127.122L101.647 131.001C91.5237 130.974 81.4029 130.789 71.2845 130.445C67.4632 130.315 26.4802 131.831 22.8574 130.608C25.523 129.444 65.289 126.602 67.9545 125.438C68.4295 125.272 68.8604 125 69.2142 124.642C69.6801 124.09 69.7324 123.314 69.9241 122.618C71.0194 118.642 75.8338 118.824 76.8064 115.272C78.0191 110.844 78.1476 107.492 82.4088 104.557Z" fill="#F9FEFA"/>
<path d="M170.141 159.201C171.915 155.606 177.208 154.377 180.386 156.819C181.556 155.758 182.98 155.016 184.52 154.666C186.061 154.317 187.665 154.37 189.179 154.823C191.764 150.221 196.579 146.546 201.854 146.689C207.129 146.832 212.173 151.827 211.201 157.014C211.75 155.457 212.616 153.811 214.176 153.27C215.736 152.73 218.959 156.029 218.355 157.565C230.496 153.15 235.699 159.091 256.82 160.715C245.083 161.781 234.884 161.551 223.146 162.616C224.167 163.012 222.52 165.944 221.654 166.614C220.789 167.284 219.593 167.264 218.499 167.214L213.481 166.985C209.773 170.065 204.671 170.688 199.877 171.185C196.986 171.485 194.014 171.778 191.215 170.998C188.416 170.218 185.79 168.105 185.289 165.242C184.169 165.39 183.246 166.172 182.188 166.564C178.366 167.982 172.055 166.743 172.355 161.483C170.437 161.963 164.194 161.35 160.374 160.871C161.245 160.124 167.622 159.62 168.769 159.614L170.141 159.201Z" fill="#F9FEFA"/>
<path d="M213.767 56.5156C215.541 52.9206 220.834 51.6921 224.012 54.1338C225.182 53.0724 226.606 52.3309 228.146 51.9812C229.687 51.6314 231.291 51.6852 232.805 52.1374C235.391 47.5358 240.205 43.8612 245.48 44.004C250.755 44.1469 255.799 49.142 254.827 54.3289C255.376 52.7715 256.242 51.1255 257.802 50.5853C259.362 50.0451 262.586 53.3434 261.982 54.8796C274.122 50.465 279.325 56.4063 300.446 58.0298C288.709 59.0954 278.51 58.8658 266.773 59.9308C267.793 60.3268 266.146 63.2584 265.28 63.9285C264.415 64.5986 263.219 64.5789 262.125 64.5286L257.107 64.2995C253.4 67.3802 248.297 68.0023 243.503 68.4994C240.612 68.7995 237.641 69.0933 234.841 68.3129C232.042 67.5326 229.416 65.4197 228.915 62.5571C227.796 62.7052 226.872 63.4865 225.814 63.8791C221.992 65.2965 215.681 64.0579 215.981 58.7982C214.064 59.2775 207.82 58.6649 204 58.1861C204.871 57.4393 211.248 56.935 212.395 56.9292L213.767 56.5156Z" fill="#F9FEFA"/>
<path d="M175.201 282.139V259.161H135.39V276.465H91.9145V241.291L68.4521 221.61V268.857H46.4056V239.612H23.2802V213.635H-0.180298V324.667H198.705V282.139H175.201Z" fill="#59C1E0"/>
<path d="M271.467 285.752H329.161V292.43C329.161 292.764 329.028 293.084 328.792 293.32C328.556 293.556 328.236 293.688 327.903 293.688H272.726C272.56 293.688 272.397 293.656 272.244 293.592C272.091 293.529 271.953 293.436 271.836 293.32C271.719 293.203 271.626 293.064 271.563 292.911C271.5 292.759 271.467 292.595 271.467 292.43V285.752Z" fill="#59C1E0"/>
<path d="M221.814 179.015H218.938V166.67C218.941 163.986 220.009 161.413 221.906 159.516C223.804 157.618 226.377 156.551 229.06 156.548H231.487V159.424H229.06C227.139 159.426 225.297 160.19 223.939 161.548C222.581 162.907 221.816 164.749 221.814 166.67V179.015Z" fill="#59C1E0"/>
<path d="M216.697 197.665H224.056C224.507 197.665 224.873 197.299 224.873 196.847V179.834C224.873 179.382 224.507 179.016 224.056 179.016H216.697C216.246 179.016 215.88 179.382 215.88 179.834V196.847C215.88 197.299 216.246 197.665 216.697 197.665Z" fill="#59C1E0"/>
<path d="M236.875 282.181H260.682V306.505C260.682 306.75 260.634 306.992 260.541 307.219C260.447 307.445 260.31 307.65 260.137 307.823C259.963 307.996 259.758 308.134 259.532 308.227C259.306 308.321 259.063 308.369 258.818 308.369H238.739C238.494 308.369 238.252 308.321 238.026 308.227C237.8 308.134 237.594 307.996 237.421 307.823C237.248 307.65 237.111 307.445 237.017 307.219C236.923 306.992 236.875 306.75 236.875 306.505V282.181Z" fill="#0099D0"/>
<path d="M273.369 132.393H324.514C324.888 132.393 325.246 132.541 325.511 132.806C325.775 133.07 325.924 133.428 325.924 133.802V143.9H271.959V133.802C271.959 133.428 272.108 133.07 272.372 132.806C272.637 132.541 272.995 132.393 273.369 132.393V132.393Z" fill="#59C1E0"/>
<path d="M340.667 282.181H364.475V306.505C364.475 306.75 364.427 306.992 364.333 307.219C364.239 307.445 364.102 307.65 363.929 307.823C363.756 307.996 363.55 308.134 363.324 308.227C363.098 308.321 362.856 308.369 362.611 308.369H342.532C342.287 308.369 342.044 308.321 341.818 308.227C341.592 308.134 341.387 307.996 341.213 307.823C341.04 307.65 340.903 307.445 340.809 307.219C340.716 306.992 340.667 306.75 340.667 306.505V282.181Z" fill="#0099D0"/>
<path d="M369.57 151.034V281.165C369.568 283.644 368.583 286.02 366.83 287.772C365.078 289.525 362.701 290.51 360.223 290.512H237.661C235.182 290.51 232.806 289.525 231.053 287.772C229.301 286.02 228.316 283.644 228.314 281.165V151.034C228.316 147.617 229.675 144.34 232.091 141.923C234.508 139.507 237.785 138.148 241.202 138.146H356.683C360.1 138.149 363.377 139.508 365.793 141.924C368.209 144.34 369.567 147.617 369.57 151.034Z" fill="#E8F8FC"/>
<path d="M366.396 147.86V227.202C366.396 228.847 366.073 230.475 365.444 231.995C364.815 233.514 363.892 234.895 362.729 236.058C361.566 237.221 360.186 238.143 358.666 238.773C357.146 239.402 355.518 239.725 353.873 239.724H244.01C242.365 239.725 240.737 239.402 239.217 238.773C237.697 238.143 236.317 237.221 235.154 236.058C233.991 234.895 233.068 233.514 232.439 231.995C231.81 230.475 231.487 228.847 231.487 227.202V147.86C231.487 144.257 235.849 141.321 241.201 141.321H356.683C362.031 141.322 366.396 144.257 366.396 147.86Z" fill="#59C1E0"/>
<path d="M355.174 141.322L296.037 239.724H264.547L323.701 141.322H355.174Z" fill="#94D7EB"/>
<path d="M307.798 141.322L248.66 239.724H244.01C242.362 239.726 240.729 239.402 239.206 238.77C237.684 238.138 236.301 237.211 235.138 236.042L292.069 141.322H307.798Z" fill="#94D7EB"/>
<path d="M369.57 151.034V152.826H228.31V151.032C228.313 147.615 229.671 144.338 232.088 141.922C234.504 139.505 237.781 138.147 241.199 138.144H356.683C360.101 138.147 363.377 139.506 365.794 141.923C368.21 144.34 369.568 147.616 369.57 151.034Z" fill="#E8F8FC"/>
<path d="M331.499 251.893H266.383C265.737 251.893 265.214 252.416 265.214 253.062V268.976C265.214 269.622 265.737 270.145 266.383 270.145H331.499C332.144 270.145 332.668 269.622 332.668 268.976V253.062C332.668 252.416 332.144 251.893 331.499 251.893Z" fill="#94D7EB"/>
<path d="M348.668 263.563C349.453 260.258 347.409 256.943 344.104 256.158C340.799 255.374 337.484 257.417 336.699 260.722C335.915 264.027 337.958 267.342 341.263 268.127C344.568 268.912 347.883 266.868 348.668 263.563Z" fill="#FFEA8F"/>
<path d="M362.84 266.492C365.242 264.09 365.242 260.196 362.84 257.794C360.438 255.393 356.544 255.393 354.142 257.794C351.741 260.196 351.741 264.09 354.142 266.492C356.544 268.894 360.438 268.894 362.84 266.492Z" fill="#FFEA8F"/>
<path d="M243.47 266.492C245.872 264.09 245.872 260.196 243.47 257.794C241.068 255.393 237.174 255.393 234.772 257.794C232.37 260.196 232.37 264.09 234.772 266.492C237.174 268.894 241.068 268.894 243.47 266.492Z" fill="#FFEA8F"/>
<path d="M259.672 266.059C261.835 263.44 261.464 259.563 258.845 257.4C256.226 255.238 252.349 255.608 250.187 258.227C248.024 260.847 248.394 264.723 251.014 266.886C253.633 269.049 257.509 268.678 259.672 266.059Z" fill="#FFEA8F"/>
<path d="M330.615 255.001H268.187V256.456H330.615V255.001Z" fill="#59C1E0"/>
<path d="M330.615 260.027H268.187V261.482H330.615V260.027Z" fill="#59C1E0"/>
<path d="M297.006 266.508H268.187V265.053H330.615V266.508H297.006Z" fill="#59C1E0"/>
<path d="M369.57 272.785V281.165C369.568 283.644 368.583 286.02 366.83 287.772C365.078 289.525 362.701 290.51 360.223 290.512H237.661C235.182 290.51 232.806 289.525 231.053 287.772C229.301 286.02 228.316 283.644 228.314 281.165V272.785H369.57Z" fill="#AAE5F4"/>
<path d="M347.016 276.494H339.742V279.8H347.016V276.494Z" fill="#FFEA8F"/>
<path d="M361.565 276.494H354.291V279.8H361.565V276.494Z" fill="#FFEA8F"/>
<path d="M250.663 279.801H257.937V276.494H250.663V279.801Z" fill="#FFEA8F"/>
<path d="M236.113 279.801H243.388V276.494H236.113V279.801Z" fill="#FFEA8F"/>
<path d="M321.856 279.801H276.026V283.372H321.856V279.801Z" fill="#59C1E0"/>
<path d="M193.209 242.019C193.637 242.989 194.134 243.929 194.695 244.829C194.773 244.96 194.821 245.107 194.838 245.258C194.854 245.41 194.837 245.563 194.789 245.707C194.741 245.852 194.662 245.984 194.559 246.096C194.455 246.207 194.328 246.295 194.187 246.354L192.633 246.999C192.454 247.074 192.255 247.084 192.069 247.029C191.883 246.974 191.722 246.856 191.612 246.696L188.54 242.213L190.535 239.746L194.713 240.687C194.787 240.703 194.853 240.742 194.903 240.799C194.952 240.855 194.983 240.926 194.989 241.001C194.996 241.075 194.979 241.15 194.94 241.215C194.901 241.279 194.843 241.329 194.773 241.358L193.209 242.019Z" fill="#D1A599"/>
<path d="M187.643 235.679L185.192 238.608L188.542 242.212L190.68 242.697L190.536 239.747C190.536 239.747 189.277 237.982 187.643 235.679Z" fill="#D1A599"/>
<path d="M196.573 245.041H195.614V243.603C195.614 243.339 195.509 243.087 195.323 242.901C195.137 242.715 194.884 242.61 194.621 242.61H188.906C188.643 242.61 188.39 242.715 188.204 242.901C188.018 243.087 187.913 243.339 187.913 243.603V245.041H186.954V243.603C186.954 243.085 187.16 242.589 187.526 242.223C187.892 241.857 188.389 241.651 188.906 241.651H194.621C195.138 241.652 195.634 241.857 196 242.223C196.366 242.589 196.572 243.085 196.573 243.603V245.041Z" fill="#261B0D"/>
<path d="M176.703 213.365C177.459 213.763 179.323 220.099 181.863 225.672C184.404 231.246 189.82 238.695 189.82 238.695L187.045 240.941L176.827 229.48L169.901 218.482L176.703 213.365Z" fill="#19183F"/>
<path d="M162.514 194.55C162.402 194.531 158.303 196.492 154.579 198.289C152.486 199.342 150.51 200.613 148.683 202.08C148.683 202.08 148.546 203.313 149.162 203.182C149.432 203.125 152.207 201.202 155.371 200.049C159.433 198.567 163.948 196.902 163.948 196.902L162.514 194.55Z" fill="#EFC8BB"/>
<path d="M160.315 193.862C160.213 193.846 157.007 195.238 153.809 196.642C151.666 197.623 149.628 198.817 147.725 200.207C147.725 200.207 147.588 201.441 148.204 201.31C148.478 201.252 151.097 199.458 154.324 198.281C158.343 196.816 162.738 195.194 162.738 195.194L160.315 193.862Z" fill="#D1A599"/>
<path d="M164.388 191.664L158.191 193.617L161.333 197.634L165.517 197.573C165.517 197.573 168.324 195.137 167.934 195.025C167.545 194.913 164.388 191.664 164.388 191.664Z" fill="#E3CB64"/>
<path d="M165.665 189.714L164.757 192.1L166.771 192.723L167.974 189.924L165.665 189.714Z" fill="#EFC8BB"/>
<path d="M167.643 191.567C172.22 193.443 172.751 186.582 172.812 185.593C172.812 185.522 172.816 185.481 172.816 185.481C172.642 180.832 167.143 181.004 166.625 180.975C166.314 180.963 166.005 181.014 165.714 181.124C165.695 181.129 165.676 181.138 165.658 181.148C165.418 181.24 165.191 181.365 164.985 181.52C163.344 182.67 162.214 185.498 163.592 188.209C163.596 188.221 163.602 188.228 163.606 188.24H163.559C163.559 188.24 163.984 190.417 167.643 191.567Z" fill="#EFC8BB"/>
<path d="M167.611 184.886L167.097 185.957C167.003 185.856 166.887 185.778 166.758 185.728C166.629 185.679 166.49 185.659 166.352 185.671C166.215 185.684 166.081 185.727 165.963 185.799C165.845 185.871 165.744 185.968 165.669 186.085C165.595 186.201 165.547 186.333 165.531 186.47C165.515 186.607 165.531 186.747 165.577 186.877C165.623 187.008 165.698 187.126 165.796 187.223C165.895 187.32 166.014 187.393 166.146 187.437L165.238 189.154C165.144 189.381 164.986 189.576 164.782 189.715C164.575 189.784 164.351 189.789 164.141 189.728C163.93 189.667 163.744 189.544 163.606 189.374C162.431 188.244 162.287 186.417 162.467 184.797C162.52 183.677 162.906 182.598 163.576 181.698C164.013 181.235 164.546 180.874 165.138 180.641C165.73 180.408 166.367 180.308 167.002 180.349C168.272 180.441 169.508 180.803 170.627 181.411C171.857 182.02 174.329 182.536 175.675 182.265C175.531 182.294 174.877 186.493 172.613 186.031C171.953 186.083 170.903 185.555 170.238 185.401C169.369 185.199 168.493 185.027 167.611 184.886Z" fill="#684231"/>
<path d="M170.75 208.014C170.128 205.23 169.706 202.405 169.486 199.561H169.499L169.444 196.292L167.906 192.649L165.78 191.868C165.78 191.868 164.973 191.718 164.577 191.656C163.247 191.444 161.307 195.827 161.307 195.827L161.259 196.094L161.255 196.105L161.114 196.859L160.952 197.734L160.756 198.514L160.75 198.545L160.392 199.983L160.324 200.257L160.205 200.73L160.162 200.906L160.118 201.074L159.105 207.478L170.75 208.014Z" fill="#FFEA8F"/>
<path d="M155.34 289.93C155.34 289.93 152.312 296.741 152.763 296.698C153.099 296.665 164.698 296.698 166.114 296.698C167.529 296.698 169.112 295.49 167.03 294.074C164.565 292.467 161.963 291.08 159.255 289.93L155.34 289.93Z" fill="#383128"/>
<path d="M178.293 290.11L176.232 296.599C176.232 296.599 184.472 296.56 189.357 296.695C189.554 296.697 189.746 296.635 189.905 296.519C190.064 296.403 190.182 296.238 190.24 296.05C190.298 295.862 190.294 295.66 190.228 295.474C190.163 295.289 190.039 295.129 189.875 295.019C186.232 292.91 181.688 290.021 181.688 290.021L178.293 290.11Z" fill="#383128"/>
<path d="M166.44 267.629L168.42 258.086L170.854 252.295L174.66 243.226L166.591 243.551L158.599 243.869L158.144 249.699L155.342 289.931H159.257L166.44 267.629Z" fill="#774B32"/>
<path d="M158.144 249.699C161.926 253.102 167.104 257.164 168.422 258.087L170.856 252.297C170.492 251.103 168.949 246.049 168.608 245.281C168.477 244.979 167.647 244.313 166.595 243.553L158.603 243.871L158.144 249.699Z" fill="#593320"/>
<path d="M203.124 246.709V270.697C203.124 271.438 202.83 272.149 202.306 272.674C201.783 273.199 201.072 273.494 200.331 273.494H182.853C182.112 273.493 181.401 273.198 180.876 272.674C180.352 272.149 180.057 271.438 180.055 270.697V246.709C180.056 245.967 180.351 245.256 180.875 244.731C181.4 244.206 182.111 243.911 182.853 243.911H200.331C200.79 243.91 201.242 244.025 201.644 244.247C202.092 244.483 202.467 244.837 202.728 245.271C202.988 245.705 203.125 246.202 203.124 246.709Z" fill="#7A5B32"/>
<path d="M201.825 245.225V269.208C201.825 269.575 201.753 269.939 201.612 270.279C201.472 270.619 201.265 270.927 201.006 271.187C200.746 271.447 200.437 271.653 200.097 271.794C199.758 271.934 199.394 272.006 199.026 272.006H181.549C181.091 272.008 180.64 271.897 180.236 271.681C180.117 271.367 180.056 271.033 180.055 270.697V246.709C180.056 245.967 180.351 245.256 180.875 244.731C181.4 244.206 182.111 243.911 182.853 243.911H200.331C200.79 243.91 201.242 244.025 201.644 244.247C201.763 244.559 201.824 244.891 201.825 245.225Z" fill="#4C381B"/>
<path d="M189.315 268.458C189.251 268.458 189.19 268.432 189.145 268.387C189.1 268.342 189.075 268.282 189.075 268.218V249.815C189.075 249.751 189.1 249.69 189.145 249.645C189.19 249.6 189.251 249.575 189.315 249.575C189.378 249.575 189.439 249.6 189.484 249.645C189.529 249.69 189.554 249.751 189.554 249.815V268.218C189.554 268.282 189.529 268.342 189.484 268.387C189.439 268.432 189.378 268.458 189.315 268.458Z" fill="#A38064"/>
<path d="M184.761 268.458C184.697 268.458 184.636 268.432 184.591 268.387C184.546 268.342 184.521 268.282 184.521 268.218V249.815C184.521 249.751 184.546 249.69 184.591 249.645C184.636 249.6 184.697 249.575 184.761 249.575C184.824 249.575 184.885 249.6 184.93 249.645C184.975 249.69 185.001 249.751 185.001 249.815V268.218C185.001 268.282 184.975 268.342 184.93 268.387C184.885 268.432 184.824 268.458 184.761 268.458Z" fill="#A38064"/>
<path d="M193.868 268.458C193.804 268.458 193.743 268.432 193.698 268.387C193.653 268.342 193.628 268.282 193.628 268.218V249.815C193.628 249.751 193.653 249.69 193.698 249.645C193.743 249.6 193.804 249.575 193.868 249.575C193.931 249.575 193.992 249.6 194.037 249.645C194.082 249.69 194.107 249.751 194.107 249.815V268.218C194.107 268.282 194.082 268.342 194.037 268.387C193.992 268.432 193.931 268.458 193.868 268.458Z" fill="#A38064"/>
<path d="M198.421 268.458C198.357 268.458 198.296 268.432 198.252 268.387C198.207 268.342 198.181 268.282 198.181 268.218V249.815C198.181 249.751 198.207 249.69 198.252 249.645C198.296 249.6 198.357 249.575 198.421 249.575C198.485 249.575 198.545 249.6 198.59 249.645C198.635 249.69 198.661 249.751 198.661 249.815V268.218C198.661 268.282 198.635 268.342 198.59 268.387C198.545 268.432 198.485 268.458 198.421 268.458Z" fill="#A38064"/>
<path d="M158.082 243.098L158.109 243.146L160.422 247.384L160.476 247.488L171.515 267.716L178.317 290.204H181.723L181.176 264.053L179.121 252.363L178.322 247.809L178.235 247.306L177.3 241.97L164.336 242.73L158.125 243.096L158.082 243.098Z" fill="#966648"/>
<path d="M168.428 210.37C169.888 211.977 171.249 213.185 172.589 213.59C173.574 213.869 174.618 213.866 175.601 213.579L177.95 210.26L178.229 209.866C178.244 209.875 178.26 209.88 178.277 209.883C184.499 211.731 184.324 202.359 184.275 201.058C184.269 201.009 184.265 200.96 184.264 200.91C183.428 194.858 176.265 195.809 175.582 195.837C175.175 195.864 174.778 195.97 174.412 196.148C174.389 196.161 174.367 196.176 174.346 196.192C174.043 196.34 173.763 196.531 173.515 196.76C171.519 198.477 170.415 202.326 172.569 205.684C172.58 205.7 172.585 205.711 172.596 205.727L172.531 205.733C172.531 205.733 168.483 210.271 168.428 210.37Z" fill="#EFC8BB"/>
<path d="M175.629 207.466C175.629 208.226 176.307 209.648 177.952 210.26L178.231 209.866C178.231 209.866 175.826 208.363 175.629 207.466Z" fill="#C4998D"/>
<path d="M177.513 252.958C177.678 255.103 178.006 257.219 178.376 259.328C178.759 261.434 179.185 263.533 179.774 265.602C179.61 263.457 179.283 261.341 178.912 259.232C178.526 257.129 178.101 255.03 177.513 252.958Z" fill="#C49378"/>
<path d="M181.131 208.69C181.336 208.622 181.526 208.517 181.693 208.382C181.837 208.273 181.95 208.127 182.02 207.96C182.053 207.876 182.066 207.785 182.056 207.695C182.046 207.605 182.015 207.519 181.964 207.444C181.873 207.334 181.746 207.261 181.605 207.238C181.465 207.216 181.324 207.212 181.183 207.227C181.089 207.226 180.995 207.247 180.91 207.287C180.843 207.339 180.788 207.403 180.748 207.477C180.707 207.551 180.682 207.632 180.675 207.716C180.625 207.903 180.618 208.1 180.656 208.291C180.704 208.477 180.848 208.682 181.04 208.68L181.131 208.69Z" fill="#C4998D"/>
<path d="M154.323 244.777L157.948 230.483L158.079 230.114L158.213 229.723L158.347 229.34L158.572 228.68L158.783 228.072L158.975 227.517L159.877 224.895L159.894 224.826L160.492 223.1L161.037 221.146L161.509 219.469L161.522 219.445L161.691 218.849L162.827 211.715C163.449 211.055 164.228 210.563 165.092 210.288C165.907 210.072 166.742 209.94 167.584 209.893C167.772 209.883 167.96 209.88 168.148 209.882L169.368 207.791C169.368 207.791 175.824 211.623 178.563 211.032C178.23 211.851 177.808 212.632 177.303 213.358L179.061 221.558L178.438 228.967H178.41C177.997 237.754 181.059 248.625 181.059 248.625L154.323 244.777Z" fill="#34315B"/>
<path d="M178.338 202.132C177.934 202.332 177.586 202.629 177.324 202.996C177.062 203.362 176.894 203.788 176.835 204.235C176.807 204.093 176.74 203.962 176.643 203.855C176.545 203.748 176.42 203.67 176.282 203.629C176.008 203.556 175.722 203.541 175.443 203.585C175.332 203.581 175.221 203.6 175.118 203.642C175.016 203.685 174.923 203.748 174.847 203.829C174.777 203.944 174.742 204.078 174.748 204.213C174.744 204.449 174.792 204.682 174.889 204.898C174.986 205.113 175.128 205.305 175.307 205.459C174.107 205.958 172.879 206.389 171.631 206.751C171.592 206.71 171.45 204.697 171.195 202.656C172.197 201.81 175.073 201.222 176.364 201.229C176.493 201.222 176.621 201.24 176.742 201.284C176.848 201.34 176.943 201.413 177.023 201.502C177.437 201.759 177.878 201.97 178.338 202.132Z" fill="#684231"/>
<path d="M183.186 200.649C182.605 200.825 182.008 200.949 181.405 201.018C179.828 201.338 178.429 202.348 176.827 202.498C175.936 202.582 175.027 202.394 174.147 202.562C173.776 202.641 173.414 202.76 173.068 202.916C172.385 203.206 171.805 204.042 171.45 204.692C171.277 202.137 170.596 201.027 171.14 198.524C171.428 197.635 171.769 196.763 172.159 195.914C172.337 195.712 172.569 195.565 172.827 195.492C173.614 195.268 174.435 195.191 175.249 195.264C176.984 195.328 178.713 195.465 180.438 195.676C181.2 195.704 181.939 195.944 182.573 196.368C182.903 196.666 183.184 197.014 183.404 197.399C183.79 197.998 184.249 198.536 184.203 199.35C184.167 199.638 184.053 199.911 183.874 200.14C183.695 200.368 183.457 200.544 183.186 200.649Z" fill="#684231"/>
<path d="M181.672 195.929C182.76 196.137 183.777 196.622 184.625 197.337C184.767 197.452 184.895 197.583 185.008 197.727C185.302 198.212 185.452 198.77 185.443 199.337C185.346 199 185.16 198.695 184.905 198.454C184.65 198.214 184.335 198.046 183.993 197.968C183.307 197.822 182.601 197.802 181.908 197.909C182.002 197.265 181.911 196.608 181.646 196.013L181.672 195.929Z" fill="#684231"/>
<path d="M178.376 195.458C180.204 195.565 182.019 195.09 183.56 194.101C183.255 194.859 182.715 195.5 182.02 195.93C181.328 196.356 180.591 196.701 179.822 196.961C179.759 196.992 179.687 197.003 179.618 196.991C179.545 196.96 179.486 196.904 179.449 196.834C179.149 196.388 179.053 196.65 178.692 196.252L178.376 195.458Z" fill="#684231"/>
<path d="M168.091 208.682L154.953 217.531L156.879 224.29L169.903 217.052L168.091 208.682Z" fill="#19183F"/>
<path d="M176.928 217.737V230.967L174.604 231.362C174.604 231.362 174.519 230.662 174.379 229.598C173.945 226.271 172.996 219.371 172.581 219.026C172.031 218.571 166.95 214.929 166.95 214.929L171.007 211.137L175.664 215.023C176.061 215.355 176.38 215.77 176.598 216.24C176.817 216.709 176.929 217.22 176.928 217.737Z" fill="#EFC8BB"/>
<path d="M176.928 229.183V230.967L174.604 231.362C174.604 231.362 174.519 230.662 174.379 229.598C174.968 229.514 176.373 229.279 176.928 229.183Z" fill="white"/>
<path d="M159.102 207.48L160.091 213.343L169.957 217.753C169.957 217.753 173.547 212.675 173.511 212.617C173.475 212.559 170.75 207.791 170.75 207.791L159.102 207.48Z" fill="#40889B"/>
<path d="M161.288 210.537L164.268 212.39L166.001 209.859L169.452 206.146C169.655 205.928 169.776 205.648 169.796 205.351C169.816 205.054 169.734 204.76 169.562 204.516L169.065 203.812C168.945 203.642 168.789 203.499 168.609 203.393C168.429 203.288 168.228 203.222 168.02 203.201C167.813 203.179 167.603 203.203 167.405 203.269C167.207 203.336 167.026 203.444 166.873 203.587C166.22 204.22 165.524 204.807 164.789 205.343L163.943 204.162C163.89 204.087 163.815 204.031 163.728 204.002C163.641 203.973 163.546 203.972 163.459 204.001C163.372 204.029 163.295 204.084 163.242 204.158C163.188 204.233 163.159 204.323 163.16 204.414V208.451C163.16 208.451 162.41 209.291 161.288 210.537Z" fill="#EFC8BB"/>
<path d="M150.257 218.986C150.647 217.324 163.158 208.201 163.158 208.201L165.907 210.238L156.91 224.294L150.257 218.986Z" fill="#34315B"/>
<path d="M164.268 191.658L157.724 195.541L159.507 199.328L166.571 195.933L164.268 191.658Z" fill="#FFEA8F"/>
<path d="M148.947 201.87C148.904 201.903 147.307 202.198 147.307 202.198L147.91 202.517L146.931 203.337L146.771 204.317L148.548 204.043L149.351 203.093L148.947 201.87Z" fill="#EFC8BB"/>
<path d="M148.269 199.832C148.227 199.866 146.629 200.161 146.629 200.161L147.233 200.48L146.254 201.3L146.094 202.279L147.871 202.006L148.673 201.056L148.269 199.832Z" fill="#D1A599"/>
<path d="M190.093 243.913L189.718 242.6C189.662 242.407 189.653 242.203 189.689 242.004C189.726 241.806 189.809 241.619 189.93 241.458C190.051 241.297 190.208 241.167 190.389 241.077C190.569 240.987 190.768 240.94 190.97 240.94H192.386C192.639 240.94 192.888 241.014 193.1 241.154C193.312 241.293 193.479 241.491 193.58 241.724L194.531 243.913H190.093Z" fill="#E2C3BC"/>
<path d="M160.27 200.468L160.695 198.762L166.57 195.938L160.27 200.468Z" fill="#E3CB64"/>
<path d="M174.594 231.2C174.594 231.2 173.389 233.456 174.076 233.519C174.581 233.566 178.588 232.917 180.681 232.571C180.792 232.552 180.895 232.502 180.978 232.427C181.061 232.351 181.12 232.253 181.148 232.145C181.177 232.037 181.174 231.922 181.139 231.816C181.104 231.709 181.039 231.615 180.952 231.544C180.644 231.291 180.268 231.135 179.872 231.096L176.919 230.803L174.594 231.2Z" fill="#20A1D3"/>
<path d="M346.278 308.369C347.803 307.971 347.668 305.586 344.826 305.586C344.277 305.549 343.735 305.714 343.299 306.048C342.863 306.382 342.563 306.864 342.456 307.403C342.456 307.403 342.062 306.247 339.772 306.247C337.336 306.247 337.149 308.026 338.673 308.369H313.372C313.466 308.147 313.504 307.905 313.482 307.665C313.482 306.451 312.075 306.463 311.358 306.463C310.641 306.463 309.448 306.247 309.448 307.664C309.438 307.91 309.497 308.155 309.619 308.369H264.108C264.151 308.113 264.169 307.853 264.162 307.593C264.162 305.655 261.914 305.675 260.769 305.675C259.625 305.675 257.721 305.33 257.721 307.593C257.717 307.856 257.755 308.119 257.833 308.37H240.221C241.179 307.316 240.677 305.003 237.233 305.003C234.165 305.003 234.203 307.128 234.203 307.128C234.203 307.128 233.711 306.193 230.91 306.193C228.546 306.193 227.329 307.652 227.487 308.37H0.0224609V324.668H359.522V308.369H346.278Z" fill="#59C1E0"/>
<path d="M-0.180298 296.865H206.08C210.236 296.865 214.222 298.516 217.161 301.455C220.1 304.394 221.751 308.38 221.751 312.536V324.667H-0.180298V296.865Z" fill="#59C1E0"/>
<path d="M45.2466 324.667H27.1642L45.2466 296.976H63.3314L45.2466 324.667Z" fill="#BCEAF6"/>
<path d="M81.4118 324.667H63.3314L81.4138 296.976H99.4961L81.4118 324.667Z" fill="#BCEAF6"/>
<path d="M117.577 324.667H99.4942L117.577 296.976H135.659L117.577 324.667Z" fill="#BCEAF6"/>
<path d="M153.742 324.667H135.659L153.741 296.976H171.824L153.742 324.667Z" fill="#BCEAF6"/>
<path d="M189.907 324.667H171.824L189.907 296.976H207.989L189.907 324.667Z" fill="#BCEAF6"/>
<path d="M9.08189 324.668H-9L9.08237 296.976H27.1643L9.08189 324.668Z" fill="#BCEAF6"/>
<path d="M38.9563 281.494C35.3048 276.768 34.7243 270.325 35.3863 264.392C36.0482 258.46 37.7959 252.671 38.2527 246.717C40.1498 251.514 41.6543 256.457 42.7512 261.498C43.6183 265.481 44.2118 269.728 42.8198 273.56C42.3293 274.802 41.7384 276.002 41.053 277.149C40.2601 278.56 39.5905 280.01 38.7977 281.42L38.9563 281.494Z" fill="#323268"/>
<path d="M38.7833 255.829C39.0009 257.602 39.1155 259.385 39.2109 261.166C39.2928 262.95 39.3609 264.733 39.3973 266.517C39.4247 268.301 39.4611 270.085 39.4453 271.87C39.4414 273.655 39.4093 275.439 39.3211 277.229L38.5767 277.196C38.6342 275.422 38.6505 273.643 38.6817 271.863L38.7478 266.52L38.7905 261.176C38.8007 260.285 38.8036 259.394 38.7991 258.503C38.8049 257.612 38.7991 256.721 38.7723 255.829L38.7833 255.829Z" fill="#34487F"/>
<path d="M38.8475 265.469C38.8876 265.119 38.9834 264.777 39.1313 264.457L39.5042 263.539C39.7538 262.926 40.0522 262.334 40.3967 261.769C40.1252 262.367 39.9023 262.985 39.73 263.619L39.4731 264.569C39.3773 264.861 39.328 265.166 39.3269 265.473L38.8475 265.469Z" fill="#34487F"/>
<path d="M38.7579 260.151L37.5226 257.77L39.162 259.893L38.7579 260.151Z" fill="#34487F"/>
<path d="M41.3779 286.362C34.3317 280.371 27.9158 273.032 25.6021 264.077C24.3194 259.113 24.3649 253.916 24.4191 248.787C27.9786 254.567 32.2054 259.931 35.4955 265.869C38.7857 271.807 41.1804 278.538 40.5333 285.295L41.3779 286.362Z" fill="#34315B"/>
<path d="M27.3334 258.467C28.3873 261.831 29.7366 265.096 31.3656 268.223C32.9562 271.358 34.7532 274.385 36.7447 277.282L36.0573 277.74C34.1595 274.745 32.4629 271.627 30.9788 268.407C29.4626 265.211 28.232 261.886 27.3013 258.473L27.3334 258.467Z" fill="#34487F"/>
<path d="M32.8137 272.154C32.532 270.466 32.5553 268.742 32.8827 267.063C32.7164 268.737 32.8516 270.427 33.282 272.053L32.8137 272.154Z" fill="#34487F"/>
<path d="M29.7042 265.54C29.4215 264.764 28.9632 264.064 28.365 263.494C27.7584 262.905 27.2148 262.254 26.7429 261.552C27.2586 262.218 27.8423 262.829 28.4843 263.374C29.1504 263.932 29.6773 264.638 30.023 265.435L29.7042 265.54Z" fill="#34487F"/>
<path d="M38.1817 284.004C37.6209 276.814 39.9476 269.599 43.7588 263.478C47.57 257.356 52.8005 252.236 58.3785 247.665C57.7337 262.337 49.7337 276.5 37.6607 284.861L38.1817 284.004Z" fill="#24245B"/>
<path d="M40.693 277.24L53.9758 255.941L41.609 277.784L40.693 277.24Z" fill="#34487F"/>
<path d="M44.6772 271.267L45.6253 266.105L45.1517 271.33L44.6772 271.267Z" fill="#34487F"/>
<path d="M48.288 265.019C49.6268 264.164 50.9071 263.185 52.2569 262.322C50.9996 263.315 49.8344 264.408 48.566 265.41L48.288 265.019Z" fill="#34487F"/>
<path d="M51.6232 259.738C51.5573 259.28 51.5546 258.815 51.6151 258.356C51.6597 257.905 51.7277 257.458 51.7891 257.011C51.768 257.462 51.7411 257.913 51.7378 258.363C51.7199 258.804 51.7611 259.246 51.8605 259.676L51.6232 259.738Z" fill="#34487F"/>
<path d="M50.6828 280.487V296.976H29.2709V280.487C29.2711 279.524 29.6534 278.601 30.3339 277.921C31.0143 277.24 31.9372 276.858 32.8995 276.858H47.0542C48.0165 276.858 48.9394 277.24 49.6198 277.921C50.3003 278.601 50.6826 279.524 50.6828 280.487Z" fill="#FFA092"/>
<path d="M50.6827 280.487V296.976H39.3992V276.858H47.0542C48.0165 276.858 48.9394 277.24 49.6198 277.921C50.3003 278.601 50.6826 279.524 50.6827 280.487Z" fill="#E5847A"/>
</svg>
