<svg width="1420" height="859" viewBox="0 0 1420 859" fill="none" xmlns="http://www.w3.org/2000/svg">
<path d="M1419.77 0H0.764404V859H1419.77V0Z" fill="white"/>
<path d="M1419.77 0H1V859H1419.77V0Z" fill="#BCEAF6"/>
<path d="M331.452 276.352C345.869 269.087 364.131 267.118 381.64 267.343C392.383 267.48 403.484 268.456 412.687 272.502C428.908 279.632 435.469 294.74 435.049 308.574C436.572 299.946 449.576 295.203 461.215 293.371C469.69 292.036 478.869 291.481 486.747 294.132C494.624 296.782 500.455 303.517 497.714 309.531C500.22 306.793 503.835 304.697 508.053 303.537C512.271 302.378 516.879 302.212 521.232 303.065C525.585 303.917 529.464 305.744 532.324 308.29C535.185 310.835 536.884 313.972 537.183 317.259C537.39 319.548 537.132 322.236 539.555 323.693C541.177 324.466 543.091 324.845 545.025 324.775L706.136 331.082L369.418 335.993L400.999 346.246C364.403 346.174 327.815 345.685 291.236 344.777C277.422 344.433 129.264 348.44 116.168 345.207C125.804 342.131 269.562 334.618 279.198 331.542C280.915 331.103 282.473 330.384 283.752 329.438C285.436 327.98 285.625 325.929 286.318 324.089C290.278 313.581 307.682 314.06 311.198 304.674C315.582 292.97 316.047 284.11 331.452 276.352Z" fill="#F9FEFA"/>
<path d="M648.612 420.78C655.024 411.278 674.16 408.031 685.647 414.485C689.876 411.679 695.025 409.72 700.594 408.795C706.163 407.871 711.964 408.013 717.436 409.208C726.782 397.045 744.187 387.333 763.257 387.711C782.327 388.088 800.561 401.291 797.047 415C799.031 410.884 802.163 406.533 807.803 405.106C813.443 403.678 825.095 412.395 822.912 416.456C866.801 404.788 885.611 420.491 961.965 424.782C919.533 427.598 882.663 426.992 840.231 429.807C843.92 430.853 837.966 438.602 834.837 440.373C831.707 442.144 827.386 442.092 823.43 441.959L805.289 441.353C791.887 449.496 773.441 451.14 756.109 452.454C745.66 453.247 734.916 454.024 724.797 451.961C714.677 449.899 705.183 444.314 703.372 436.748C699.326 437.14 695.988 439.205 692.162 440.242C678.346 443.988 655.53 440.715 656.615 426.813C649.683 428.08 627.111 426.461 613.302 425.195C616.451 423.221 639.505 421.888 643.653 421.873L648.612 420.78Z" fill="#F9FEFA"/>
<path d="M806.325 149.375C812.737 139.873 831.872 136.626 843.359 143.08C847.589 140.274 852.737 138.315 858.306 137.39C863.875 136.466 869.676 136.608 875.148 137.803C884.495 125.641 901.9 115.929 920.97 116.306C940.039 116.684 958.274 129.886 954.76 143.595C956.744 139.479 959.875 135.129 965.516 133.701C971.156 132.273 982.807 140.991 980.624 145.051C1024.51 133.383 1043.32 149.086 1119.68 153.377C1077.25 156.194 1040.38 155.587 997.944 158.402C1001.63 159.448 995.679 167.197 992.55 168.968C989.42 170.739 985.098 170.687 981.142 170.554L963.001 169.948C949.599 178.091 931.153 179.735 913.822 181.049C903.373 181.842 892.629 182.619 882.509 180.556C872.39 178.494 862.895 172.909 861.084 165.343C857.038 165.735 853.701 167.8 849.875 168.837C836.059 172.584 813.243 169.31 814.327 155.408C807.396 156.675 784.824 155.056 771.015 153.79C774.164 151.816 797.217 150.484 801.366 150.468L806.325 149.375Z" fill="#F9FEFA"/>
<path d="M666.904 745.716V684.984H522.984V730.72H365.815V637.751L280.997 585.733V710.61H201.297V633.313H117.696V564.654H32.884V858.12H751.872V745.716H666.904Z" fill="#59C1E0"/>
<path d="M1014.92 755.266H1223.48V772.915C1223.48 773.797 1223 774.643 1222.15 775.267C1221.3 775.891 1220.14 776.241 1218.94 776.241H1019.47C1018.87 776.241 1018.28 776.155 1017.72 775.988C1017.17 775.82 1016.67 775.575 1016.25 775.266C1015.83 774.957 1015.49 774.591 1015.26 774.187C1015.03 773.783 1014.92 773.351 1014.92 772.914V755.266Z" fill="#59C1E0"/>
<path d="M835.416 473.152H825.019V440.521C825.03 433.428 828.888 426.628 835.748 421.612C842.608 416.597 851.91 413.776 861.611 413.768H870.383V421.369H861.611C854.666 421.375 848.008 423.394 843.097 426.985C838.186 430.575 835.424 435.443 835.416 440.521V473.152Z" fill="#59C1E0"/>
<path d="M816.918 522.444H843.519C845.151 522.444 846.475 521.476 846.475 520.282V475.314C846.475 474.121 845.151 473.153 843.519 473.153H816.918C815.285 473.153 813.962 474.121 813.962 475.314V520.282C813.962 521.476 815.285 522.444 816.918 522.444Z" fill="#59C1E0"/>
<path d="M889.861 745.826H975.928V810.117C975.928 810.764 975.754 811.405 975.415 812.003C975.076 812.6 974.58 813.143 973.954 813.601C973.328 814.059 972.585 814.421 971.768 814.669C970.95 814.917 970.074 815.044 969.189 815.044H896.6C895.715 815.044 894.839 814.917 894.022 814.669C893.204 814.421 892.461 814.059 891.835 813.601C891.209 813.143 890.713 812.6 890.374 812.003C890.036 811.405 889.861 810.764 889.861 810.117V745.826Z" fill="#0099D0"/>
<path d="M1408.94 473.152H1398.55V440.521C1398.54 435.443 1395.78 430.575 1390.86 426.985C1385.95 423.394 1379.3 421.375 1372.35 421.369H1363.58V413.768H1372.35C1382.05 413.776 1391.35 416.597 1398.21 421.612C1405.07 426.628 1408.93 433.428 1408.94 440.521V473.152Z" fill="#59C1E0"/>
<path d="M1021.79 349.924H1206.68C1208.04 349.924 1209.33 350.317 1210.29 351.015C1211.24 351.714 1211.78 352.662 1211.78 353.65V380.338H1016.69V353.65C1016.69 352.662 1017.23 351.714 1018.19 351.015C1019.14 350.317 1020.44 349.924 1021.79 349.924V349.924Z" fill="#59C1E0"/>
<path d="M1265.08 745.826H1351.15V810.117C1351.15 810.764 1350.97 811.405 1350.63 812.003C1350.3 812.6 1349.8 813.143 1349.17 813.601C1348.55 814.059 1347.81 814.421 1346.99 814.669C1346.17 814.917 1345.29 815.044 1344.41 815.044H1271.82C1270.94 815.044 1270.06 814.917 1269.24 814.669C1268.42 814.421 1267.68 814.059 1267.05 813.601C1266.43 813.143 1265.93 812.6 1265.59 812.003C1265.26 811.405 1265.08 810.764 1265.08 810.117V745.826Z" fill="#0099D0"/>
<path d="M1369.57 399.194V743.142C1369.56 749.692 1366 755.973 1359.66 760.605C1353.33 765.237 1344.74 767.841 1335.78 767.846H892.702C883.742 767.841 875.151 765.237 868.816 760.605C862.48 755.973 858.918 749.692 858.911 743.142V399.194C858.92 390.162 863.832 381.502 872.568 375.115C881.304 368.728 893.15 365.137 905.504 365.131H1322.98C1335.33 365.138 1347.18 368.73 1355.91 375.116C1364.65 381.503 1369.56 390.163 1369.57 399.194V399.194Z" fill="#E8F8FC"/>
<path d="M1358.09 390.805V600.512C1358.09 604.859 1356.92 609.164 1354.65 613.18C1352.38 617.197 1349.04 620.846 1344.84 623.92C1340.63 626.994 1335.64 629.431 1330.15 631.094C1324.65 632.757 1318.77 633.612 1312.82 633.61H915.655C909.709 633.612 903.821 632.757 898.328 631.094C892.834 629.431 887.843 626.994 883.639 623.92C879.434 620.846 876.1 617.197 873.826 613.18C871.552 609.164 870.382 604.859 870.384 600.512V390.805C870.384 381.281 886.153 373.521 905.5 373.521H1322.98C1342.31 373.524 1358.09 381.281 1358.09 390.805Z" fill="#59C1E0"/>
<path d="M1317.53 373.524L1103.74 633.61H989.9L1203.75 373.524H1317.53Z" fill="#94D7EB"/>
<path d="M1146.25 373.524L932.465 633.61H915.656C909.697 633.615 903.794 632.758 898.29 631.087C892.785 629.417 887.787 626.967 883.583 623.878L1089.39 373.524H1146.25Z" fill="#94D7EB"/>
<path d="M1369.57 399.194V403.93H858.899V399.189C858.908 390.157 863.82 381.497 872.556 375.11C881.292 368.723 893.137 365.132 905.492 365.126H1322.98C1335.33 365.133 1347.18 368.725 1355.91 375.113C1364.65 381.501 1369.56 390.162 1369.57 399.194V399.194Z" fill="#E8F8FC"/>
<path d="M1231.94 665.772H996.535C994.201 665.772 992.308 667.156 992.308 668.862V710.925C992.308 712.632 994.201 714.015 996.535 714.015H1231.94C1234.27 714.015 1236.16 712.632 1236.16 710.925V668.862C1236.16 667.156 1234.27 665.772 1231.94 665.772Z" fill="#94D7EB"/>
<path d="M1294 696.618C1296.84 687.883 1289.45 679.12 1277.51 677.046C1265.56 674.972 1253.57 680.373 1250.74 689.108C1247.9 697.844 1255.29 706.606 1267.23 708.68C1279.18 710.754 1291.17 705.354 1294 696.618Z" fill="#FFEA8F"/>
<path d="M1345.24 704.36C1353.92 698.012 1353.92 687.719 1345.24 681.371C1336.55 675.022 1322.48 675.022 1313.79 681.371C1305.11 687.719 1305.11 698.012 1313.79 704.36C1322.48 710.708 1336.55 710.708 1345.24 704.36Z" fill="#FFEA8F"/>
<path d="M913.703 704.36C922.386 698.012 922.386 687.719 913.703 681.371C905.02 675.022 890.942 675.022 882.259 681.371C873.576 687.719 873.576 698.012 882.259 704.36C890.942 710.708 905.02 710.708 913.703 704.36Z" fill="#FFEA8F"/>
<path d="M972.275 703.214C980.093 696.291 978.755 686.045 969.285 680.329C959.816 674.613 945.802 675.592 937.984 682.515C930.166 689.438 931.505 699.684 940.974 705.4C950.443 711.116 964.457 710.137 972.275 703.214Z" fill="#FFEA8F"/>
<path d="M1228.74 673.987H1003.06V677.832H1228.74V673.987Z" fill="#59C1E0"/>
<path d="M1228.74 687.272H1003.06V691.117H1228.74V687.272Z" fill="#59C1E0"/>
<path d="M1107.24 704.402H1003.06V700.557H1228.74V704.402H1107.24Z" fill="#59C1E0"/>
<path d="M1417.04 473.152H1390.44C1388.81 473.152 1387.49 474.119 1387.49 475.313V520.281C1387.49 521.475 1388.81 522.442 1390.44 522.442H1417.04C1418.68 522.442 1420 521.475 1420 520.281V475.313C1420 474.119 1418.68 473.152 1417.04 473.152Z" fill="#59C1E0"/>
<path d="M1369.57 720.992V743.141C1369.56 749.692 1366 755.973 1359.66 760.605C1353.33 765.237 1344.74 767.841 1335.78 767.846H892.702C883.742 767.841 875.151 765.237 868.816 760.605C862.48 755.973 858.918 749.692 858.911 743.141V720.992H1369.57Z" fill="#AAE5F4"/>
<path d="M1288.03 730.794H1261.73V739.533H1288.03V730.794Z" fill="#FFEA8F"/>
<path d="M1340.63 730.794H1314.33V739.533H1340.63V730.794Z" fill="#FFEA8F"/>
<path d="M939.705 739.535H966.002V730.795H939.705V739.535Z" fill="#FFEA8F"/>
<path d="M887.108 739.535H913.406V730.795H887.108V739.535Z" fill="#FFEA8F"/>
<path d="M1197.07 739.535H1031.4V748.973H1197.07V739.535Z" fill="#59C1E0"/>
<path d="M732.005 639.673C733.554 642.239 735.349 644.722 737.377 647.103C737.658 647.449 737.834 647.836 737.893 648.236C737.951 648.636 737.892 649.041 737.718 649.423C737.544 649.805 737.259 650.156 736.884 650.45C736.509 650.745 736.051 650.977 735.542 651.131L729.923 652.838C729.275 653.035 728.555 653.062 727.883 652.917C727.211 652.771 726.628 652.46 726.232 652.037L715.128 640.187L722.34 633.667L737.443 636.154C737.708 636.197 737.948 636.3 738.127 636.449C738.307 636.598 738.416 636.785 738.44 636.983C738.465 637.18 738.402 637.379 738.261 637.549C738.121 637.718 737.91 637.851 737.66 637.928L732.005 639.673Z" fill="#D1A599"/>
<path d="M711.884 622.917L703.022 630.658L715.135 640.184L722.863 641.467L722.343 633.671C722.343 633.671 717.789 629.005 711.884 622.917Z" fill="#D1A599"/>
<path d="M744.166 647.661H740.701V643.861C740.699 643.165 740.32 642.497 739.647 642.005C738.974 641.513 738.061 641.236 737.109 641.236H716.45C715.498 641.236 714.585 641.513 713.911 642.005C713.238 642.497 712.859 643.165 712.857 643.861V647.661H709.392V643.861C709.394 642.493 710.139 641.181 711.462 640.214C712.785 639.247 714.579 638.703 716.45 638.702H737.109C738.979 638.704 740.773 639.248 742.096 640.215C743.419 641.182 744.164 642.493 744.166 643.861V647.661Z" fill="#261B0D"/>
<path d="M672.335 563.941C675.068 564.992 681.805 581.738 690.989 596.469C700.173 611.201 719.754 630.89 719.754 630.89L709.723 636.825L672.782 606.533L647.745 577.464L672.335 563.941Z" fill="#19183F"/>
<path d="M621.038 514.211C620.636 514.162 605.817 519.343 592.353 524.093C584.787 526.877 577.643 530.235 571.039 534.112C571.039 534.112 570.545 537.372 572.772 537.026C573.745 536.875 583.779 531.792 595.215 528.744C609.901 524.829 626.223 520.428 626.223 520.428L621.038 514.211Z" fill="#EFC8BB"/>
<path d="M613.089 512.393C612.722 512.349 601.133 516.029 589.57 519.741C581.823 522.333 574.454 525.489 567.575 529.163C567.575 529.163 567.081 532.423 569.308 532.077C570.299 531.924 579.765 527.183 591.431 524.073C605.961 520.199 621.849 515.914 621.849 515.914L613.089 512.393Z" fill="#D1A599"/>
<path d="M627.813 506.582L605.413 511.744L616.77 522.362L631.896 522.2C631.896 522.2 642.042 515.762 640.635 515.465C639.228 515.169 627.813 506.582 627.813 506.582Z" fill="#E3CB64"/>
<path d="M632.43 501.429L629.149 507.736L636.427 509.383L640.778 501.984L632.43 501.429Z" fill="#EFC8BB"/>
<path d="M639.583 506.327C656.128 511.286 658.048 493.151 658.268 490.537C658.268 490.349 658.284 490.241 658.284 490.241C657.655 477.952 637.775 478.407 635.9 478.332C634.778 478.3 633.659 478.433 632.608 478.723C632.538 478.739 632.47 478.76 632.407 478.788C631.536 479.031 630.716 479.361 629.971 479.77C624.041 482.81 619.957 490.285 624.935 497.451C624.952 497.483 624.971 497.5 624.989 497.532H624.816C624.816 497.532 626.354 503.286 639.583 506.327Z" fill="#EFC8BB"/>
<path d="M639.465 488.668L637.609 491.499C637.269 491.231 636.849 491.024 636.382 490.893C635.915 490.763 635.413 490.711 634.915 490.744C634.417 490.776 633.936 490.892 633.508 491.081C633.08 491.27 632.717 491.528 632.447 491.836C632.176 492.143 632.005 492.492 631.947 492.855C631.889 493.218 631.945 493.586 632.111 493.931C632.277 494.276 632.549 494.588 632.905 494.844C633.262 495.101 633.693 495.294 634.168 495.41L630.888 499.948C630.548 500.549 629.975 501.065 629.24 501.43C628.489 501.615 627.68 501.628 626.92 501.467C626.159 501.306 625.485 500.979 624.985 500.53C620.74 497.542 620.22 492.715 620.868 488.433C621.06 485.472 622.456 482.62 624.88 480.243C626.458 479.019 628.386 478.064 630.526 477.448C632.667 476.831 634.967 476.568 637.263 476.676C641.855 476.92 646.323 477.877 650.37 479.484C654.816 481.094 663.752 482.456 668.617 481.74C668.097 481.816 665.733 492.914 657.547 491.694C655.163 491.831 651.366 490.437 648.963 490.029C645.819 489.495 642.653 489.041 639.465 488.668Z" fill="#684231"/>
<path d="M650.813 549.797C648.565 542.439 647.038 534.972 646.244 527.454H646.291L646.091 518.815L640.532 509.186L632.847 507.123C632.847 507.123 629.927 506.725 628.498 506.563C623.689 506 616.675 517.585 616.675 517.585L616.501 518.291L616.489 518.321L615.98 520.314L615.392 522.627L614.685 524.688L614.661 524.77L613.367 528.57L613.121 529.294L612.693 530.544L612.535 531.009L612.379 531.455L608.714 548.381L650.813 549.797Z" fill="#FFEA8F"/>
<path d="M595.104 766.308C595.104 766.308 584.158 784.308 585.789 784.194C587.002 784.109 628.936 784.194 634.053 784.194C639.17 784.194 644.89 781.003 637.365 777.26C628.453 773.013 619.048 769.348 609.257 766.307L595.104 766.308Z" fill="#383128"/>
<path d="M678.081 766.783L670.63 783.934C670.63 783.934 700.419 783.832 718.079 784.187C718.791 784.192 719.486 784.029 720.061 783.722C720.636 783.415 721.061 782.981 721.271 782.483C721.482 781.986 721.467 781.452 721.229 780.961C720.991 780.471 720.543 780.049 719.952 779.759C706.782 774.185 690.355 766.549 690.355 766.549L678.081 766.783Z" fill="#383128"/>
<path d="M635.233 707.365L642.392 682.141L651.191 666.836L664.95 642.865L635.777 643.725L606.886 644.565L605.24 659.973L595.111 766.309H609.263L635.233 707.365Z" fill="#774B32"/>
<path d="M605.24 659.973C618.915 668.968 637.633 679.703 642.397 682.144L651.196 666.84C649.879 663.684 644.303 650.326 643.069 648.297C642.595 647.499 639.595 645.737 635.791 643.729L606.9 644.569L605.24 659.973Z" fill="#593320"/>
<path d="M767.847 652.071V715.472C767.849 717.431 766.787 719.311 764.893 720.698C763 722.085 760.43 722.865 757.75 722.867H694.567C691.886 722.864 689.316 722.083 687.42 720.697C685.525 719.311 684.458 717.432 684.453 715.472V652.071C684.455 650.11 685.521 648.23 687.417 646.843C689.314 645.456 691.886 644.677 694.567 644.676H757.75C759.41 644.673 761.045 644.978 762.5 645.562C764.119 646.187 765.473 647.124 766.416 648.271C767.358 649.418 767.853 650.732 767.847 652.071V652.071Z" fill="#7A5B32"/>
<path d="M763.151 648.148V711.537C763.152 712.508 762.891 713.47 762.383 714.368C761.875 715.266 761.129 716.081 760.19 716.768C759.25 717.455 758.135 718 756.907 718.371C755.679 718.743 754.364 718.934 753.035 718.933H689.854C688.198 718.939 686.566 718.644 685.104 718.074C684.675 717.243 684.454 716.362 684.453 715.473V652.071C684.455 650.11 685.521 648.23 687.417 646.843C689.314 645.456 691.886 644.677 694.567 644.676H757.75C759.41 644.673 761.045 644.978 762.5 645.562C762.929 646.389 763.149 647.265 763.151 648.148V648.148Z" fill="#4C381B"/>
<path d="M717.926 709.554C717.696 709.554 717.476 709.488 717.314 709.369C717.151 709.25 717.06 709.089 717.06 708.921V660.28C717.06 660.112 717.151 659.951 717.314 659.832C717.476 659.713 717.696 659.647 717.926 659.647C718.156 659.647 718.376 659.713 718.539 659.832C718.701 659.951 718.793 660.112 718.793 660.28V708.921C718.793 709.089 718.701 709.25 718.539 709.369C718.376 709.488 718.156 709.554 717.926 709.554Z" fill="#A38064"/>
<path d="M701.464 709.554C701.234 709.554 701.014 709.488 700.852 709.369C700.689 709.25 700.598 709.089 700.598 708.921V660.28C700.598 660.112 700.689 659.951 700.852 659.832C701.014 659.713 701.234 659.647 701.464 659.647C701.694 659.647 701.914 659.713 702.077 659.832C702.239 659.951 702.331 660.112 702.331 660.28V708.921C702.331 709.089 702.239 709.25 702.077 709.369C701.914 709.488 701.694 709.554 701.464 709.554Z" fill="#A38064"/>
<path d="M734.386 709.554C734.157 709.554 733.936 709.488 733.774 709.369C733.611 709.25 733.52 709.089 733.52 708.921V660.28C733.52 660.112 733.611 659.951 733.774 659.832C733.936 659.713 734.157 659.647 734.386 659.647C734.616 659.647 734.837 659.713 734.999 659.832C735.162 659.951 735.253 660.112 735.253 660.28V708.921C735.253 709.089 735.162 709.25 734.999 709.369C734.837 709.488 734.616 709.554 734.386 709.554Z" fill="#A38064"/>
<path d="M750.847 709.554C750.617 709.554 750.396 709.488 750.234 709.369C750.072 709.25 749.98 709.089 749.98 708.921V660.28C749.98 660.112 750.072 659.951 750.234 659.832C750.396 659.713 750.617 659.647 750.847 659.647C751.076 659.647 751.297 659.713 751.459 659.832C751.622 659.951 751.713 660.112 751.713 660.28V708.921C751.713 709.089 751.622 709.25 751.459 709.369C751.297 709.488 751.076 709.554 750.847 709.554Z" fill="#A38064"/>
<path d="M605.016 642.528L605.115 642.655L613.476 653.854L613.673 654.129L653.581 707.593L678.17 767.032H690.483L688.506 697.911L681.074 667.014L678.189 654.978L677.873 653.649L674.493 639.544L627.628 641.554L605.174 642.522L605.016 642.528Z" fill="#966648"/>
<path d="M642.42 556.023C647.696 560.271 652.617 563.465 657.461 564.534C661.022 565.273 664.797 565.263 668.351 564.505L676.842 555.734L677.851 554.693C677.904 554.715 677.963 554.73 678.024 554.736C700.518 559.621 699.886 534.851 699.709 531.412C699.686 531.282 699.673 531.152 699.669 531.022C696.645 515.024 670.751 517.539 668.28 517.611C666.811 517.684 665.375 517.963 664.051 518.435C663.967 518.468 663.888 518.507 663.813 518.55C662.717 518.941 661.705 519.448 660.808 520.053C653.595 524.591 649.602 534.764 657.389 543.638C657.429 543.681 657.448 543.71 657.488 543.753L657.251 543.768C657.251 543.768 642.617 555.762 642.42 556.023Z" fill="#EFC8BB"/>
<path d="M668.45 548.349C668.45 550.357 670.902 554.115 676.851 555.734L677.86 554.693C677.86 554.693 669.162 550.718 668.45 548.349Z" fill="#C4998D"/>
<path d="M675.262 668.589C675.858 674.258 677.043 679.85 678.381 685.425C679.767 690.992 681.306 696.538 683.437 702.007C682.845 696.337 681.66 690.745 680.318 685.171C678.925 679.611 677.388 674.063 675.262 668.589Z" fill="#C49378"/>
<path d="M688.343 551.583C689.081 551.403 689.769 551.128 690.372 550.769C690.895 550.481 691.303 550.095 691.554 549.653C691.676 549.431 691.721 549.191 691.686 548.954C691.651 548.716 691.537 548.489 691.353 548.291C691.025 548 690.564 547.806 690.055 547.745C689.551 547.687 689.038 547.677 688.53 547.716C688.189 547.714 687.851 547.769 687.543 547.877C687.302 548.012 687.102 548.183 686.956 548.377C686.81 548.572 686.72 548.787 686.694 549.008C686.511 549.504 686.488 550.025 686.626 550.528C686.799 551.021 687.319 551.562 688.012 551.557L688.343 551.583Z" fill="#C4998D"/>
<path d="M591.427 646.965L604.533 609.184L605.007 608.21L605.491 607.176L605.976 606.162L606.789 604.419L607.551 602.813L608.244 601.346L611.506 594.414L611.568 594.232L613.729 589.671L615.701 584.507L617.408 580.073L617.454 580.01L618.063 578.435L622.171 559.579C624.418 557.834 627.236 556.535 630.359 555.806C633.307 555.237 636.326 554.887 639.37 554.762C640.049 554.736 640.728 554.728 641.406 554.735L645.818 549.207C645.818 549.207 669.157 559.336 679.057 557.774C677.854 559.94 676.327 562.002 674.505 563.922L680.857 585.595L678.605 605.178H678.504C677.014 628.403 688.081 657.135 688.081 657.135L591.427 646.965Z" fill="#34315B"/>
<path d="M678.246 534.25C676.786 534.78 675.526 535.564 674.578 536.533C673.63 537.503 673.023 538.628 672.81 539.809C672.708 539.434 672.468 539.086 672.116 538.804C671.763 538.522 671.312 538.315 670.81 538.206C669.822 538.014 668.789 537.974 667.778 538.09C667.377 538.079 666.977 538.131 666.605 538.242C666.234 538.354 665.899 538.522 665.624 538.736C665.37 539.041 665.245 539.393 665.265 539.75C665.252 540.373 665.427 540.991 665.776 541.561C666.126 542.13 666.642 542.636 667.287 543.044C662.948 544.362 658.51 545.502 653.997 546.458C653.856 546.351 653.343 541.029 652.422 535.635C656.043 533.4 666.44 531.844 671.11 531.864C671.574 531.844 672.038 531.894 672.474 532.01C672.857 532.156 673.201 532.351 673.489 532.586C674.988 533.265 676.583 533.823 678.246 534.25V534.25Z" fill="#684231"/>
<path d="M695.772 530.33C693.669 530.796 691.513 531.123 689.331 531.307C683.632 532.152 678.573 534.82 672.784 535.219C669.561 535.441 666.274 534.942 663.094 535.386C661.751 535.596 660.443 535.909 659.192 536.321C656.726 537.089 654.629 539.299 653.343 541.018C652.719 534.264 650.257 531.33 652.222 524.715C653.266 522.365 654.496 520.061 655.908 517.815C656.549 517.281 657.388 516.894 658.323 516.701C661.166 516.109 664.134 515.905 667.078 516.099C673.349 516.268 679.602 516.63 685.836 517.186C688.591 517.262 691.262 517.896 693.554 519.017C694.748 519.802 695.763 520.722 696.56 521.742C697.955 523.324 699.613 524.746 699.449 526.898C699.317 527.659 698.905 528.381 698.258 528.985C697.61 529.589 696.751 530.054 695.772 530.33Z" fill="#684231"/>
<path d="M690.296 517.855C694.232 518.405 697.909 519.686 700.972 521.576C701.485 521.88 701.95 522.226 702.358 522.607C703.419 523.889 703.964 525.364 703.93 526.862C703.578 525.972 702.906 525.166 701.984 524.53C701.063 523.894 699.924 523.45 698.688 523.244C696.21 522.859 693.656 522.806 691.152 523.09C691.489 521.387 691.16 519.649 690.204 518.078L690.296 517.855Z" fill="#684231"/>
<path d="M678.383 516.61C684.991 516.893 691.552 515.637 697.123 513.024C696.019 515.028 694.067 516.722 691.554 517.858C689.055 518.983 686.39 519.897 683.609 520.582C683.381 520.665 683.122 520.693 682.871 520.662C682.608 520.58 682.393 520.433 682.263 520.248C681.178 519.07 680.83 519.761 679.523 518.71L678.383 516.61Z" fill="#684231"/>
<path d="M641.201 551.562L593.706 574.952L600.667 592.816L647.751 573.685L641.201 551.562Z" fill="#19183F"/>
<path d="M673.146 575.497V610.464L664.747 611.506C664.747 611.506 664.44 609.658 663.934 606.845C662.363 598.05 658.932 579.813 657.433 578.902C655.445 577.7 637.075 568.073 637.075 568.073L651.742 558.05L668.577 568.323C670.012 569.201 671.165 570.298 671.955 571.538C672.745 572.777 673.151 574.129 673.146 575.497V575.497Z" fill="#EFC8BB"/>
<path d="M673.146 605.75V610.464L664.747 611.506C664.747 611.506 664.44 609.658 663.934 606.845C666.062 606.624 671.141 606.003 673.146 605.75Z" fill="white"/>
<path d="M608.705 548.385L612.278 563.883L647.945 575.539C647.945 575.539 660.926 562.117 660.796 561.964C660.666 561.81 650.813 549.207 650.813 549.207L608.705 548.385Z" fill="#40889B"/>
<path d="M616.607 556.467L627.38 561.364L633.646 554.674L646.123 544.86C646.854 544.285 647.293 543.542 647.365 542.758C647.438 541.974 647.139 541.195 646.519 540.553L644.722 538.692C644.287 538.241 643.725 537.863 643.074 537.584C642.422 537.306 641.697 537.132 640.946 537.076C640.195 537.019 639.436 537.081 638.721 537.257C638.005 537.432 637.35 537.718 636.798 538.095C634.438 539.77 631.92 541.322 629.262 542.738L626.207 539.617C626.015 539.418 625.742 539.27 625.427 539.193C625.112 539.116 624.772 539.115 624.456 539.189C624.14 539.264 623.864 539.41 623.67 539.607C623.475 539.803 623.371 540.04 623.374 540.283V550.953C623.374 550.953 620.662 553.173 616.607 556.467Z" fill="#EFC8BB"/>
<path d="M576.728 578.797C578.14 574.403 623.367 550.292 623.367 550.292L633.306 555.676L600.781 592.827L576.728 578.797Z" fill="#34315B"/>
<path d="M627.38 506.568L603.722 516.83L610.168 526.838L635.705 517.865L627.38 506.568Z" fill="#FFEA8F"/>
<path d="M571.992 533.557C571.839 533.646 566.064 534.425 566.064 534.425L568.245 535.267L564.705 537.435L564.128 540.025L570.552 539.303L573.453 536.792L571.992 533.557Z" fill="#EFC8BB"/>
<path d="M569.543 528.173C569.391 528.26 563.615 529.04 563.615 529.04L565.799 529.883L562.257 532.051L561.68 534.64L568.103 533.917L571.004 531.406L569.543 528.173Z" fill="#D1A599"/>
<path d="M720.74 644.681L719.383 641.212C719.183 640.7 719.148 640.16 719.281 639.636C719.414 639.113 719.712 638.618 720.151 638.193C720.59 637.768 721.157 637.422 721.81 637.185C722.462 636.947 723.181 636.823 723.909 636.823H729.028C729.946 636.823 730.843 637.02 731.61 637.388C732.377 637.756 732.981 638.279 733.347 638.895L736.783 644.681H720.74Z" fill="#E2C3BC"/>
<path d="M612.927 529.852L614.465 525.342L635.701 517.88L612.927 529.852Z" fill="#E3CB64"/>
<path d="M664.709 611.078C664.709 611.078 660.354 617.043 662.838 617.208C664.662 617.334 679.149 615.619 686.716 614.703C687.116 614.654 687.488 614.522 687.787 614.322C688.087 614.123 688.301 613.864 688.405 613.577C688.508 613.291 688.496 612.988 688.37 612.707C688.244 612.425 688.01 612.176 687.695 611.989V611.989C686.582 611.32 685.223 610.908 683.789 610.805L673.115 610.031L664.709 611.078Z" fill="#20A1D3"/>
<path d="M1285.36 815.044C1290.88 813.99 1290.39 807.687 1280.11 807.687C1278.13 807.591 1276.17 808.025 1274.59 808.909C1273.02 809.792 1271.94 811.065 1271.55 812.489C1271.55 812.489 1270.12 809.435 1261.84 809.435C1253.04 809.435 1252.36 814.136 1257.87 815.044H1166.4C1166.74 814.456 1166.88 813.817 1166.8 813.182C1166.8 809.974 1161.72 810.006 1159.12 810.006C1156.53 810.006 1152.22 809.434 1152.22 813.179C1152.18 813.831 1152.4 814.477 1152.84 815.044H988.312C988.467 814.366 988.532 813.679 988.505 812.992C988.505 807.87 980.38 807.924 976.242 807.924C972.104 807.924 965.221 807.012 965.221 812.992C965.207 813.688 965.344 814.381 965.626 815.047H901.957C905.422 812.259 903.604 806.145 891.156 806.145C880.066 806.145 880.201 811.763 880.201 811.763C880.201 811.763 878.425 809.292 868.296 809.292C859.752 809.292 855.35 813.149 855.922 815.047H33.617V858.122H1333.24V815.044H1285.36Z" fill="#59C1E0"/>
<path d="M32.884 784.638H778.535C793.56 784.638 807.97 789.002 818.594 796.769C829.218 804.537 835.187 815.072 835.187 826.057V858.119H32.884V784.638Z" fill="#59C1E0"/>
<path d="M197.107 858.118H131.737L197.107 784.929H262.485L197.107 858.118Z" fill="#BCEAF6"/>
<path d="M327.847 858.118H262.485L327.854 784.929H393.224L327.847 858.118Z" fill="#BCEAF6"/>
<path d="M458.587 858.118H393.217L458.587 784.929H523.956L458.587 858.118Z" fill="#BCEAF6"/>
<path d="M589.327 858.118H523.956L589.325 784.929H654.695L589.327 858.118Z" fill="#BCEAF6"/>
<path d="M720.066 858.118H654.697L720.066 784.929H785.436L720.066 858.118Z" fill="#BCEAF6"/>
<path d="M66.3678 858.123H1L66.3695 784.933H131.737L66.3678 858.123Z" fill="#BCEAF6"/>
<path d="M174.367 744.009C161.166 731.52 159.068 714.49 161.461 698.809C163.854 683.129 170.172 667.828 171.823 652.091C178.681 664.77 184.12 677.835 188.086 691.158C191.22 701.687 193.366 712.913 188.334 723.039C186.561 726.323 184.424 729.496 181.946 732.526C179.08 736.254 176.659 740.087 173.793 743.815L174.367 744.009Z" fill="#323268"/>
<path d="M173.741 676.175C174.528 680.862 174.942 685.574 175.287 690.283C175.583 694.996 175.829 699.709 175.961 704.424C176.06 709.14 176.191 713.855 176.134 718.572C176.12 723.291 176.004 728.005 175.685 732.739L172.994 732.65C173.202 727.962 173.261 723.258 173.374 718.554L173.613 704.433L173.767 690.308C173.804 687.953 173.815 685.598 173.798 683.244C173.819 680.887 173.798 678.534 173.701 676.176L173.741 676.175Z" fill="#34487F"/>
<path d="M173.973 701.655C174.118 700.729 174.465 699.826 174.999 698.981L176.347 696.553C177.25 694.934 178.329 693.37 179.574 691.877C178.593 693.456 177.786 695.091 177.164 696.765L176.235 699.277C175.889 700.048 175.71 700.855 175.706 701.666L173.973 701.655Z" fill="#34487F"/>
<path d="M173.649 687.6L169.184 681.307L175.11 686.918L173.649 687.6Z" fill="#34487F"/>
<path d="M183.121 756.877C157.648 741.041 134.454 721.644 126.09 697.977C121.453 684.854 121.617 671.118 121.813 657.562C134.681 672.839 149.961 687.017 161.856 702.712C173.75 718.406 182.407 736.196 180.068 754.057L183.121 756.877Z" fill="#34315B"/>
<path d="M132.349 683.148C136.159 692.04 141.036 700.669 146.925 708.933C152.676 717.221 159.172 725.22 166.371 732.878L163.886 734.088C157.026 726.172 150.892 717.932 145.527 709.421C140.046 700.972 135.597 692.185 132.233 683.163L132.349 683.148Z" fill="#34487F"/>
<path d="M152.16 719.324C151.142 714.864 151.226 710.307 152.41 705.869C151.809 710.293 152.298 714.76 153.853 719.058L152.16 719.324Z" fill="#34487F"/>
<path d="M140.92 701.844C139.898 699.792 138.241 697.941 136.078 696.435C133.885 694.878 131.92 693.158 130.214 691.303C132.079 693.063 134.188 694.676 136.51 696.117C138.918 697.592 140.822 699.458 142.072 701.565L140.92 701.844Z" fill="#34487F"/>
<path d="M171.566 750.644C169.539 731.64 177.95 712.572 191.728 696.392C205.506 680.212 224.414 666.679 244.579 654.598C242.249 693.376 213.328 730.81 169.683 752.911L171.566 750.644Z" fill="#24245B"/>
<path d="M180.645 732.766L228.664 676.471L183.956 734.203L180.645 732.766Z" fill="#34487F"/>
<path d="M195.048 716.978L198.476 703.336L196.764 717.145L195.048 716.978Z" fill="#34487F"/>
<path d="M208.102 700.466C212.941 698.207 217.57 695.62 222.449 693.338C217.904 695.963 213.692 698.851 209.107 701.498L208.102 700.466Z" fill="#34487F"/>
<path d="M220.159 686.508C219.92 685.297 219.91 684.068 220.129 682.855C220.29 681.662 220.536 680.481 220.758 679.299C220.682 680.491 220.585 681.685 220.573 682.873C220.508 684.039 220.657 685.206 221.016 686.343L220.159 686.508Z" fill="#34487F"/>
<path d="M216.759 741.348V784.93H139.353V741.348C139.354 738.805 140.736 736.365 143.196 734.567C145.656 732.768 148.992 731.758 152.471 731.758H203.641C207.12 731.758 210.457 732.768 212.916 734.567C215.376 736.365 216.759 738.805 216.759 741.348Z" fill="#FFA092"/>
<path d="M216.759 741.348V784.929H175.968V731.757H203.641C207.12 731.757 210.457 732.768 212.916 734.566C215.376 736.365 216.759 738.804 216.759 741.348Z" fill="#E5847A"/>
</svg>
